<svg height="479pt" viewBox="0 0 479.99278 479" width="479pt" xmlns="http://www.w3.org/2000/svg"><path d="m457.089844 213.246094-25.097656 35.136718h-80l-25.09375-35.136718c-9.6875-13.558594-14.898438-29.800782-14.90625-46.464844v-22.398438c0-44.183593 35.816406-80 80-80 44.183593 0 80 35.816407 80 80v22.398438c-.007813 16.664062-5.21875 32.90625-14.902344 46.464844zm0 0" fill="#fbd699"/><path d="m407.992188 256.382812h-32c-4.417969 0-8-3.582031-8-8v-32.976562c0-18.851562-5.125-37.347656-14.824219-53.511719l-8-13.394531c-1.480469-2.464844-1.523438-5.535156-.113281-8.042969 1.410156-2.507812 4.0625-4.0625 6.9375-4.074219h20.6875l13.65625-13.65625c3.125-3.125 8.1875-3.125 11.3125 0l13.65625 13.65625h20.6875c2.882812 0 5.542968 1.550782 6.960937 4.058594 1.421875 2.511719 1.378906 5.589844-.105469 8.058594l-8 13.394531c-9.710937 16.160157-14.84375 34.65625-14.855468 53.511719v32.976562c0 4.417969-3.582032 8-8 8zm-24-16h16v-24.976562c0-21.75 5.914062-43.09375 17.105468-61.746094l.800782-1.277344h-9.90625c-2.121094 0-4.15625-.84375-5.65625-2.34375l-10.34375-10.34375-10.34375 10.34375c-1.5 1.5-3.535157 2.34375-5.65625 2.34375h-9.871094l.800781 1.277344c11.179687 18.65625 17.082031 39.996094 17.070313 61.746094zm0 0" fill="#fd9226"/><path d="m375.992188 480.382812h-216c-13.253907 0-24-10.746093-24-24 0-4.417968 3.582031-8 8-8 4.417968 0 8 3.582032 8 8 0 4.417969 3.582031 8 8 8h216c4.417968 0 8-3.582031 8-8 .027343-22.082031 17.921874-39.976562 40-40h12c11.046874 0 20-8.957031 20-20 0-11.046874-8.953126-20-20-20h-16c-19.871094-.023437-35.976563-16.128906-36-36v-4c0-4.417968 3.582031-8 8-8 4.417968 0 8 3.582032 8 8v4c0 11.042969 8.953124 20 20 20h16c19.882812 0 36 16.117188 36 36 0 19.882813-16.117188 36-36 36h-12c-13.253907 0-24 10.742188-24 24 0 13.253907-10.746094 24-24 24zm0 0" fill="#d9d9d9"/><path d="m143.992188 456.382812c-8.835938 0-16-7.164062-16-16v-24h32v24c0 8.835938-7.164063 16-16 16zm0 0" fill="#da922a"/><path d="m215.992188 360.382812h-144v-164.367187c0-69.292969 25.648437-136.132813 72-187.632813 46.355468 51.5 72 118.339844 72 187.632813zm0 0" fill="#f3af3e"/><path d="m143.992188 432.382812c-39.765626 0-72-32.238281-72-72v-48h144v48c0 39.761719-32.234376 72-72 72zm0 0" fill="#ea9d2d"/><g fill="#da922a"><path d="m71.992188 360.382812-64-184 50.671874 38c50.734376 38.054688 91.082032 88.261719 117.328126 146zm0 0"/><path d="m135.992188 112.382812h16v16h-16zm0 0"/><path d="m135.992188 80.382812h16v16h-16zm0 0"/><path d="m135.992188 48.382812h16v16h-16zm0 0"/><path d="m135.992188 144.382812h16v16h-16zm0 0"/><path d="m135.992188 176.382812h16v16h-16zm0 0"/><path d="m135.992188 208.382812h16v16h-16zm0 0"/><path d="m135.992188 240.382812h16v16h-16zm0 0"/><path d="m167.992188 112.382812h16v16h-16zm0 0"/><path d="m167.992188 80.382812h16v16h-16zm0 0"/><path d="m167.992188 144.382812h16v16h-16zm0 0"/><path d="m167.992188 176.382812h16v16h-16zm0 0"/><path d="m167.992188 208.382812h16v16h-16zm0 0"/><path d="m167.992188 240.382812h16v16h-16zm0 0"/><path d="m103.992188 112.382812h16v16h-16zm0 0"/><path d="m103.992188 80.382812h16v16h-16zm0 0"/><path d="m103.992188 144.382812h16v16h-16zm0 0"/><path d="m103.992188 176.382812h16v16h-16zm0 0"/><path d="m103.992188 208.382812h16v16h-16zm0 0"/><path d="m103.992188 240.382812h16v16h-16zm0 0"/></g><path d="m367.992188 296.382812h48v16c0 13.253907-10.746094 24-24 24-13.253907 0-24-10.746093-24-24zm0 0" fill="#cdcdcd"/><path d="m415.992188 296.382812h-48c-8.835938 0-16-7.164062-16-16v-32h80v32c0 8.835938-7.164063 16-16 16zm0 0" fill="#d9d9d9"/><path d="m247.992188 432.382812h16v16h-16zm0 0" fill="#fd9226"/><path d="m279.992188 432.382812h16v16h-16zm0 0" fill="#fbd699"/><path d="m311.992188 432.382812h16v16h-16zm0 0" fill="#fd9226"/><path d="m343.992188 432.382812h16v16h-16zm0 0" fill="#fbd699"/><path d="m215.992188 432.382812h16v16h-16zm0 0" fill="#fbd699"/><path d="m78.878906 329.863281-12 15.941407 5.113282 14.578124s72-57.410156 72-56.707031c0 .707031-12.558594-17.535156-19.375-25.886719-16.535157 16.179688-31.824219 33.585938-45.738282 52.074219zm0 0" fill="#d18d28"/><path d="m215.992188 360.382812 64-184-67.28125 43.535157c-45.453126 29.410156-85.347657 66.632812-117.832032 109.945312l-22.886718 30.519531zm0 0" fill="#ea9d2d"/><path d="m457.089844 213.246094-25.097656 35.136718h-80l-25.09375-35.136718c-9.6875-13.558594-14.898438-29.800782-14.90625-46.464844v-22.398438c0-44.183593 35.816406-80 80-80 44.183593 0 80 35.816407 80 80v22.398438c-.007813 16.664062-5.21875 32.90625-14.902344 46.464844zm0 0" fill="#fbd699"/><path d="m407.992188 256.382812h-32c-4.417969 0-8-3.582031-8-8v-32.976562c0-18.851562-5.125-37.347656-14.824219-53.511719l-8-13.394531c-1.480469-2.464844-1.523438-5.535156-.113281-8.042969 1.410156-2.507812 4.0625-4.0625 6.9375-4.074219h20.6875l13.65625-13.65625c3.125-3.125 8.1875-3.125 11.3125 0l13.65625 13.65625h20.6875c2.882812 0 5.542968 1.550782 6.960937 4.058594 1.421875 2.511719 1.378906 5.589844-.105469 8.058594l-8 13.394531c-9.710937 16.160157-14.84375 34.65625-14.855468 53.511719v32.976562c0 4.417969-3.582032 8-8 8zm-24-16h16v-24.976562c0-21.75 5.914062-43.09375 17.105468-61.746094l.800782-1.277344h-9.90625c-2.121094 0-4.15625-.84375-5.65625-2.34375l-10.34375-10.34375-10.34375 10.34375c-1.5 1.5-3.535157 2.34375-5.65625 2.34375h-9.871094l.800781 1.277344c11.179687 18.65625 17.082031 39.996094 17.070313 61.746094zm0 0" fill="#fd9226"/><path d="m375.992188 480.382812h-216c-13.253907 0-24-10.746093-24-24 0-4.417968 3.582031-8 8-8 4.417968 0 8 3.582032 8 8 0 4.417969 3.582031 8 8 8h216c4.417968 0 8-3.582031 8-8 .027343-22.082031 17.921874-39.976562 40-40h12c11.046874 0 20-8.957031 20-20 0-11.046874-8.953126-20-20-20h-16c-19.871094-.023437-35.976563-16.128906-36-36v-4c0-4.417968 3.582031-8 8-8 4.417968 0 8 3.582032 8 8v4c0 11.042969 8.953124 20 20 20h16c19.882812 0 36 16.117188 36 36 0 19.882813-16.117188 36-36 36h-12c-13.253907 0-24 10.742188-24 24 0 13.253907-10.746094 24-24 24zm0 0" fill="#d9d9d9"/><path d="m143.992188 456.382812c-8.835938 0-16-7.164062-16-16v-24h32v24c0 8.835938-7.164063 16-16 16zm0 0" fill="#da922a"/><path d="m215.992188 360.382812h-144v-164.367187c0-69.292969 25.648437-136.132813 72-187.632813 46.355468 51.5 72 118.339844 72 187.632813zm0 0" fill="#f3af3e"/><path d="m143.992188 432.382812c-39.765626 0-72-32.238281-72-72v-48h144v48c0 39.761719-32.234376 72-72 72zm0 0" fill="#ea9d2d"/><path d="m71.992188 360.382812-64-184 50.671874 38c50.734376 38.054688 91.082032 88.261719 117.328126 146zm0 0" fill="#da922a"/><path d="m135.992188 112.382812h16v16h-16zm0 0" fill="#da922a"/><path d="m135.992188 80.382812h16v16h-16zm0 0" fill="#da922a"/><path d="m135.992188 48.382812h16v16h-16zm0 0" fill="#da922a"/><path d="m135.992188 144.382812h16v16h-16zm0 0" fill="#da922a"/><path d="m135.992188 176.382812h16v16h-16zm0 0" fill="#da922a"/><path d="m135.992188 208.382812h16v16h-16zm0 0" fill="#da922a"/><path d="m135.992188 240.382812h16v16h-16zm0 0" fill="#da922a"/><path d="m167.992188 112.382812h16v16h-16zm0 0" fill="#da922a"/><path d="m167.992188 80.382812h16v16h-16zm0 0" fill="#da922a"/><path d="m167.992188 144.382812h16v16h-16zm0 0" fill="#da922a"/><path d="m167.992188 176.382812h16v16h-16zm0 0" fill="#da922a"/><path d="m167.992188 208.382812h16v16h-16zm0 0" fill="#da922a"/><path d="m167.992188 240.382812h16v16h-16zm0 0" fill="#da922a"/><path d="m103.992188 112.382812h16v16h-16zm0 0" fill="#da922a"/><path d="m103.992188 80.382812h16v16h-16zm0 0" fill="#da922a"/><path d="m103.992188 144.382812h16v16h-16zm0 0" fill="#da922a"/><path d="m103.992188 176.382812h16v16h-16zm0 0" fill="#da922a"/><path d="m103.992188 208.382812h16v16h-16zm0 0" fill="#da922a"/><path d="m103.992188 240.382812h16v16h-16zm0 0" fill="#da922a"/><path d="m367.992188 296.382812h48v16c0 13.253907-10.746094 24-24 24-13.253907 0-24-10.746093-24-24zm0 0" fill="#cdcdcd"/><path d="m415.992188 296.382812h-48c-8.835938 0-16-7.164062-16-16v-32h80v32c0 8.835938-7.164063 16-16 16zm0 0" fill="#d9d9d9"/><path d="m247.992188 432.382812h16v16h-16zm0 0" fill="#fd9226"/><path d="m279.992188 432.382812h16v16h-16zm0 0" fill="#fbd699"/><path d="m311.992188 432.382812h16v16h-16zm0 0" fill="#fd9226"/><path d="m343.992188 432.382812h16v16h-16zm0 0" fill="#fbd699"/><path d="m215.992188 432.382812h16v16h-16zm0 0" fill="#fbd699"/><path d="m78.878906 329.863281-12 15.941407 5.113282 14.578124s72-57.410156 72-56.707031c0 .707031-12.558594-17.535156-19.375-25.886719-16.535157 16.179688-31.824219 33.585938-45.738282 52.074219zm0 0" fill="#d18d28"/><path d="m215.992188 360.382812 64-184-67.28125 43.535157c-45.453126 29.410156-85.347657 66.632812-117.832032 109.945312l-22.886718 30.519531zm0 0" fill="#ea9d2d"/><path d="m135.992188 112.382812h16v16h-16zm0 0"/><path d="m135.992188 80.382812h16v16h-16zm0 0"/><path d="m135.992188 48.382812h16v16h-16zm0 0"/><path d="m135.992188 144.382812h16v16h-16zm0 0"/><path d="m135.992188 176.382812h16v16h-16zm0 0"/><path d="m135.992188 208.382812h16v16h-16zm0 0"/><path d="m167.992188 112.382812h16v16h-16zm0 0"/><path d="m167.992188 144.382812h16v16h-16zm0 0"/><path d="m167.992188 176.382812h16v16h-16zm0 0"/><path d="m167.992188 208.382812h16v16h-16zm0 0"/><path d="m103.992188 112.382812h16v16h-16zm0 0"/><path d="m103.992188 144.382812h16v16h-16zm0 0"/><path d="m103.992188 176.382812h16v16h-16zm0 0"/><path d="m103.992188 208.382812h16v16h-16zm0 0"/><path d="m391.992188 56.382812c-48.578126.054688-87.941407 39.421876-88 88v22.398438c-.035157 18.347656 5.699218 36.238281 16.390624 51.144531l23.609376 33.023438v29.433593c.042968 10.132813 6.445312 19.148438 16 22.527344v9.472656c.046874 14.667969 10.058593 27.425782 24.296874 30.957032 1.5 18.621094 17.023438 32.984375 35.703126 33.042968h16c11.046874 0 20 8.953126 20 20 0 11.042969-8.953126 20-20 20h-12c-22.078126.023438-39.972657 17.917969-40 40 0 4.417969-3.582032 8-8 8h-216c-2.144532-.003906-4.199219-.867187-5.703126-2.402343 8.351563-3.953125 13.683594-12.359375 13.703126-21.597657v-3.6875c32.71875-10.359374 55.203124-40.402343 55.921874-74.714843l63.628907-182.949219c1.121093-3.226562.070312-6.804688-2.613281-8.914062-2.6875-2.109376-6.414063-2.28125-9.28125-.429688l-51.65625 33.398438v-7.082032c.042968-71.269531-26.34375-140.027344-74.054688-192.972656-1.554688-1.621094-3.703125-2.535156-5.945312-2.535156-2.242188 0-4.390626.914062-5.945313 2.535156-47.710937 52.945312-74.097656 121.703125-74.054687 192.972656v12.378906c-.183594-.136718-.351563-.296874-.527344-.433593l-50.671875-37.96875c-2.816407-2.105469-6.675781-2.125-9.511719-.054688-2.839844 2.074219-3.992188 5.757813-2.839844 9.078125l63.632813 182.976563c.714843 34.3125 23.203125 64.355469 55.917969 74.714843v3.6875c.035156 10.566407 6.996093 19.863282 17.128906 22.871094 3.007812 10.132813 12.304687 17.09375 22.871094 17.128906h216c13.253906 0 24-10.746093 24-24 0-13.257812 10.746093-24 24-24h12c19.882812 0 36-16.117187 36-36 0-19.882812-16.117188-36-36-36h-16c-9.941407-.042968-18.339844-7.382812-19.71875-17.226562 13.953124-3.71875 23.675781-16.335938 23.71875-30.773438v-9.472656c9.554687-3.378906 15.957031-12.394531 16-22.527344v-29.433593l23.609374-33.0625c10.683594-14.894531 16.417969-32.773438 16.390626-51.105469v-22.398438c-.058594-48.578124-39.421876-87.945312-88-88zm-312 139.621094c0-38.523437 8.179687-76.613281 24-111.742187v12.121093h16v-16h-14.273438c10.09375-21.527343 22.960938-41.640624 38.273438-59.824218 15.3125 18.183594 28.179687 38.296875 38.273437 59.824218h-14.273437v16h16v-12.121093c15.820312 35.128906 24 73.21875 24 111.742187v17.441406c-12.910157 8.375-25.3125 17.398438-37.253907 26.9375h-2.746093v2.238282c-5.441407 4.410156-10.773438 8.945312-16 13.601562v-15.839844h-16v16h15.792968c-6.671875 5.933594-13.175781 12.050782-19.511718 18.34375-5.058594-6.277343-10.292969-12.394531-15.710938-18.34375h3.429688v-16h-16v2.695313c-7.664063-7.625-15.71875-14.839844-24-21.792969zm-55.832032 2.503906 29.695313 22.273438c25.109375 18.898438 47.707031 40.921875 67.242187 65.535156-11.5625 12.316406-22.449218 25.25-32.609375 38.746094l-13.878906 18.519531zm56 164.371094 21.160156-28.226562c31.902344-42.558594 71.101563-79.125 115.777344-108l47.726563-30.878906-56.382813 161.984374c-.097656.425782-.160156.859376-.183594 1.296876-.125.433593-.214843.878906-.265624 1.328124.011718 34.84375-27.875 63.285157-62.710938 63.964844-34.839844.679688-63.8125-26.652344-65.160156-61.46875zm71.832032 77.503906c0 4.417969-3.582032 8-8 8-4.417969 0-8-3.582031-8-8v-.410156c5.320312.546875 10.679687.546875 16 0zm256-128c0 8.835938-7.164063 16-16 16-8.835938 0-16-7.164062-16-16v-8h32zm16-32c0 4.417969-3.582032 8-8 8h-48c-4.417969 0-8-3.582031-8-8v-24h64zm-57.101563-126.722656-.800781-1.277344h9.902344c2.121093 0 4.15625-.84375 5.65625-2.34375l10.34375-10.34375 10.34375 10.34375c1.5 1.5 3.535156 2.34375 5.65625 2.34375h9.871093l-.796875 1.277344c-11.183594 18.65625-17.082031 39.996094-17.074218 61.746094v24.976562h-16v-24.976562c0-21.75-5.910157-43.09375-17.101563-61.746094zm97.101563 13.121094c.027343 15.011719-4.664063 29.648438-13.40625 41.847656l-22.714844 31.753906h-11.878906v-24.976562c0-18.851562 5.125-37.347656 14.824218-53.511719l8-13.394531c1.480469-2.464844 1.523438-5.535156.113282-8.042969-1.410157-2.507812-4.058594-4.0625-6.9375-4.074219h-20.6875l-13.65625-13.65625c-3.125-3.125-8.1875-3.125-11.3125 0l-13.65625 13.65625h-20.6875c-2.882813 0-5.542969 1.550782-6.960938 4.058594-1.417969 2.511719-1.378906 5.589844.105469 8.058594l8 13.394531c9.710937 16.160157 14.847656 34.65625 14.855469 53.511719v24.976562h-11.878907l-22.710937-31.792968c-8.738282-12.1875-13.429688-26.8125-13.410156-41.808594v-22.398438c0-39.765624 32.234374-72 72-72 39.765624 0 72 32.234376 72 72zm0 0"/><path d="m247.992188 432.382812h16v16h-16zm0 0"/><path d="m279.992188 432.382812h16v16h-16zm0 0"/><path d="m311.992188 432.382812h16v16h-16zm0 0"/><path d="m343.992188 432.382812h16v16h-16zm0 0"/><path d="m215.992188 432.382812h16v16h-16zm0 0"/></svg>