<svg id="gradient" enable-background="new 0 0 512 512" height="512" viewBox="0 0 512 512" width="512" xmlns="http://www.w3.org/2000/svg" xmlns:xlink="http://www.w3.org/1999/xlink"><linearGradient id="SVGID_1_" gradientUnits="userSpaceOnUse" x1="31.804" x2="396.888" y1="59.803" y2="424.888"><stop offset="0" stop-color="#e5e2df"/><stop offset="0" stop-color="#ede3d0"/><stop offset="0" stop-color="#ffe6b1"/><stop offset=".0482052" stop-color="#f5d795"/><stop offset=".1516431" stop-color="#ddb04e"/><stop offset=".2051199" stop-color="#d09b27"/><stop offset=".2299408" stop-color="#d9af35"/><stop offset=".2698506" stop-color="#e4c846"/><stop offset=".3114164" stop-color="#edda52"/><stop offset=".3553027" stop-color="#f1e55a"/><stop offset=".4053487" stop-color="#f3e85c"/><stop offset=".4427025" stop-color="#e8dd5d"/><stop offset=".5093057" stop-color="#c9c05e"/><stop offset=".5968051" stop-color="#989261"/><stop offset=".646067" stop-color="#797563"/><stop offset=".6958127" stop-color="#6f7e64"/><stop offset=".741573" stop-color="#628a66"/><stop offset=".7446176" stop-color="#5d8767"/><stop offset=".7682427" stop-color="#3c766d"/><stop offset=".7924634" stop-color="#216872"/><stop offset=".817232" stop-color="#0f5e75"/><stop offset=".8428807" stop-color="#045877"/><stop offset=".870786" stop-color="#005678"/><stop offset=".87141" stop-color="#02577a"/><stop offset=".8839163" stop-color="#1f719b"/><stop offset=".896739" stop-color="#3685b6"/><stop offset=".9098539" stop-color="#4794c8"/><stop offset=".9234306" stop-color="#519cd3"/><stop offset=".938202" stop-color="#549fd7"/><stop offset=".941299" stop-color="#5fa5da"/><stop offset=".9522892" stop-color="#80b8e3"/><stop offset=".963562" stop-color="#9bc6e9"/><stop offset=".9750875" stop-color="#add1ee"/><stop offset=".9870207" stop-color="#b8d7f1"/><stop offset="1" stop-color="#bcd9f2"/></linearGradient><path d="m160 288v-8c0-4.4179688 3.5820313-8 8-8s8 3.5820313 8 8v8c0 4.4179688-3.5820313 8-8 8s-8-3.5820312-8-8zm-32 48c13.2333984 0 24-10.7666016 24-24 0-4.4179688-3.5820313-8-8-8s-8 3.5820313-8 8c0 4.4111328-3.5888672 8-8 8s-8-3.5888672-8-8c0-4.4179688-3.5820313-8-8-8s-8 3.5820313-8 8c0 13.2333984 10.7666016 24 24 24zm384-128v96c0 4.4179688-3.5820313 8-8 8h-224c-4.4179688 0-8-3.5820313-8-8v-200h.0192871c.0004883-2.0810547.7937012-4.1274414 2.3234863-5.6572266l32-32c1.5009766-1.5 3.5351563-2.3427734 5.6572266-2.3427734h24v-16c0-2.1220703.8427734-4.15625 2.3427734-5.6572266l40-40c1.5625-1.5615234 3.6098633-2.3422851 5.6572266-2.3422851v-.0004883h64c2.1220703 0 4.15625.8427734 5.6572266 2.3427734l40 40-.0004883.0004883c1.4477539 1.4477539 2.3432617 3.4477539 2.3432617 5.6567383v140.6855469l13.6572266 13.6572266-.0004883.0004883c1.4477539 1.4477538 2.3432617 3.4477538 2.3432617 5.6567382zm-32-35.3144531v-116.6855469h-48v48 8 40h24c2.1220703 0 4.15625.8427734 5.6572266 2.3427734zm-88-89.3720703-24 24v44.6865234h48v-40-4.6865234zm52.6865234-67.3134766h-41.3720703l24 24h41.371582zm-92.6865234 48h40v.0004883c2.0473633 0 4.0947266.7807617 5.6572266 2.3422852l18.3427734 18.3427734v-33.3710938l-32-32.0009766-32 32zm-52.6865234 32h57.3720703l16-16h-57.3720703zm-11.3134766 200h16v-88c0-2.1220703.8427734-4.15625 2.3427734-5.6572266l45.6572266-45.6572265v-44.6855469h-64zm80-72c0-4.4111328-3.5888672-8-8-8s-8 3.5888672-8 8v72h16zm32-12.6865234-40-40-40 40v84.6865234h16v-72c0-13.2333984 10.7666016-24 24-24s24 10.7666016 24 24v72h16zm11.3134766-11.3134766h73.3723145l-31.9992676-32h-28.6865235-44.685791zm84.6865234 16h-80v80h80zm-64 56v-16c0-13.2333984 10.7666016-24 24-24s24 10.7666016 24 24v16c0 4.4179688-3.5820313 8-8 8h-32c-4.4179687 0-8-3.5820312-8-8zm16-8h16v-8c0-4.4111328-3.5888672-8-8-8s-8 3.5888672-8 8zm-152-112v-8c0-13.2333984 10.7666016-24 24-24s24 10.7666016 24 24v8c0 4.4179688-3.5820313 8-8 8h-32c-4.4179687 0-8-3.5820312-8-8zm16-8h16c0-4.4111328-3.5888672-8-8-8s-8 3.5888672-8 8zm104 222.1757813c0 9.1923828-5.7832031 17.5371094-14.3896484 20.7646484l-49.6103516 18.6030273v34.456543c0 39.7011719-32.2988281 72-72 72h-16c-22.59375 0-42.7900391-10.4609375-56-26.7929688v18.7929688c0 4.4179688-3.5820313 8-8 8h-192c-4.4179688 0-8-3.5820313-8-8v-80c0-22.0556641 17.9443359-40 40-40h40c0-1.2121582.2773438-2.3566895.7600098-3.3862305-21.8813477-11.1789551-39.579834-29.9677734-49.1311035-53.559082-18.1018067-3.8671875-31.6289063-20.1049805-31.6289063-39.0546875v-48c0-41.9560547 20.0407715-80.3867188 54.0229492-104.418457-9.0722656-14.0510254-14.0229492-30.6533203-14.0229492-47.581543 0-48.5234375 39.4765625-88 88-88s88 39.4765625 88 88c0 16.9160156-4.9438477 33.5068359-14.0268555 47.5793457 33.9841309 24.0314941 54.0268555 62.4626465 54.0268555 104.4206543v32 16c0 18.9489746-13.5266113 35.185791-31.6279297 39.0539551-9.5444336 23.5878906-27.244873 42.3796387-49.1318359 53.5603027.4824219 1.0292969.7597656 2.1738281.7597656 3.3857422h40c22.0556641 0 40 17.9443359 40 40v8c0 8.8222656 7.1777344 16 16 16s16-7.1777344 16-16v-32-48c0-13.2333984 10.7666016-24 24-24 10.4296875 0 19.3271484 6.6875 22.6289063 16h59.1953125c12.227539 0 22.1757812 9.9482422 22.1757812 22.1757813zm-279.2229004 37.9157714-8.7770996-8.7770996-8.7770996 8.7770996-14.5012207 58.005127 23.2783203 29.0966797 23.2783203-29.0966797zm-28.0905762-12.0915527h-12.6865234v12.6865234zm51.3134766 12.6865234v-12.6865234h-12.6865234zm32-76.6865234c0-4.4111328-3.5888672-8-8-8s-8 3.5888672-8 8 3.5888672 8 8 8 8-3.5888672 8-8zm48-40v-8.3925781c-2.6994629-.265625-5.3676758-.6704102-8-1.201416v9.5939941c0 6.526123-.6220703 12.9702148-1.8134766 19.2878418 5.9538575-4.388916 9.8134766-11.4509277 9.8134766-19.2878418zm-184-200c0 16.4697266 5.3964844 31.9199219 15.6064453 44.6816406 10.1210938 12.8349609 24.3466797 21.8535156 40.0898438 25.4375 1.4697266.3349609 2.8144531 1.078125 3.8808594 2.1435547l12.4228515 12.4238281 12.4228516-12.4238281c1.0664063-1.0654297 2.4111328-1.8085938 3.8808594-2.1435547 15.7431641-3.5839844 29.9677734-12.6025391 40.0537109-25.3935547 10.2460937-12.8066406 15.6425781-28.2568359 15.6425781-44.7255859 0-39.7011719-32.2988281-72-72-72s-72 32.2988281-72 72zm-40 176h88c35.2900391 0 64-28.7099609 64-64 0-4.4179688 3.5820313-8 8-8s8 3.5820313 8 8c0 17.1279297 6.6621094 33.1826172 18.7597656 45.2060547 10.1591797 10.2216797 23.1552735 16.5605469 37.2402344 18.3027344v-23.5087891c0-36.9509277-17.7773438-70.7768555-47.878418-91.7819824-11.3193359 12.1040039-25.9423828 20.8278809-41.972168 24.9470215l-16.4921875 16.4921875c-1.5624999 1.5615234-3.6093749 2.3427734-5.6572265 2.3427734s-4.0947266-.78125-5.6572266-2.3427734l-16.4921875-16.4921875c-16.0180664-4.1159668-30.6323242-12.831543-41.9699707-24.9489746-30.1027832 21.0056152-47.8806152 54.8317871-47.8806152 91.7839355zm9.8129883 43.2871094c-1.1904297-6.3149414-1.8129883-12.7597656-1.8129883-19.2871094v-8h-8v8c0 7.8364258 3.859375 14.8984375 9.8129883 19.2871094zm19.1655273 9.8779297c.9458008 2.6928711 2.0285645 5.3088379 3.2124023 7.8608398 1.4702149-11.8342285 11.583252-21.0258789 23.8090821-21.0258789 13.2333984 0 24 10.7666016 24 24s-10.7666016 24-24 24c-1.6743164 0-3.3088379-.1738281-4.887207-.5014648 16.0439453 15.3649902 37.7026367 24.5014648 60.887207 24.5014648 23.1875 0 44.8491211-9.1391602 60.8916016-24.5024414-1.579834.3283691-3.2158203.5024414-4.8916016.5024414-13.2333984 0-24-10.7666016-24-24s10.7666016-24 24-24c12.2263184 0 22.3398438 9.1923828 23.8093262 21.0275879 1.1799316-2.5449219 2.2595215-5.1533203 3.2023926-7.8381348 3.3125-9.3359375 4.9882812-19.1484375 4.9882812-29.1894531v-14.6550293c-9.0581055-3.9597168-17.3823242-9.6096191-24.5537109-16.8254395-6.4208984-6.3808594-11.6191406-13.6796875-15.4746094-21.6054688-12.9873047 26.6679689-40.3681641 45.0859376-71.9716797 45.0859376h-8v8c0 4.4179688-3.5820313 8-8 8s-8-3.5820313-8-8v-8h-40v8c0 10.0400391 1.6748047 19.8525391 4.9785156 29.1650391zm27.0214844 18.8349609c4.4111328 0 8-3.5888672 8-8s-3.5888672-8-8-8-8 3.5888672-8 8 3.5888672 8 8 8zm-56 160h32v-56c0-4.4179688 3.5820313-8 8-8s8 3.5820313 8 8v56h47.3544922l-21.6015625-27.0019531c-1.5595703-1.9501953-2.1201172-4.5166016-1.5136719-6.9384766l8.994873-35.979248-3.5769043 3.5769043c-1.5312499 1.5302734-3.5771484 2.3427734-5.6591796 2.3427734-1.0302734 0-2.0693359-.1992188-3.0595703-.609375-2.9892578-1.2382812-4.9384766-4.1552734-4.9384766-7.390625v-24h-40c-13.2333984 0-24 10.7666016-24 24zm320-56v-32h-32v24c0 17.6445313-14.3554688 32-32 32s-32-14.3554688-32-32v-8c0-13.2333984-10.7666016-24-24-24h-40v24c0 3.2353516-1.9492188 6.1523438-4.9384766 7.390625-.9892578.4101563-2.0292968.609375-3.0595703.609375-2.0820313 0-4.1279297-.8125-5.6591797-2.3427734l-3.5769043-3.5769043 8.994873 35.979248c.6064453 2.421875.0458984 4.9882813-1.5136719 6.9384766l-21.6015624 27.0019531h47.3544922v-56c0-4.4179688 3.5820313-8 8-8s8 3.5820313 8 8c0 30.8789063 25.1210938 56 56 56h16c30.8789063 0 56-25.1210937 56-56zm64-73.8242187c0-3.4052735-2.7705078-6.1757813-6.1757812-6.1757813h-65.8242188c-4.4179688 0-8-3.5820313-8-8 0-4.4111328-3.5888672-8-8-8s-8 3.5888672-8 8v40h38.5488281l53.4443359-20.0410156c2.3964844-.8994141 4.006836-3.2226563 4.006836-5.7832031zm-316.2851562-232.522461-12.6845703-12.6835938c-3.1240234-3.125-3.1240234-8.1894531 0-11.3144531l22.625-22.625c3.125-3.1230469 8.1894531-3.1230469 11.3144531 0l7.0302734 7.03125 22.0615234-22.0615234-7.03125-7.0302734c-3.1240234-3.125-3.1240234-8.1894531 0-11.3144531l22.625-22.625c3.125-3.1230469 8.1894531-3.1230469 11.3144531 0l12.6875 12.6875c15.5947266 15.5947266 15.5947266 40.9697266 0 56.5644531l-33.375 33.375c-7.5361327 7.5449218-17.5810546 11.7021484-28.2822265 11.7021484s-20.7460937-4.1572266-28.2851562-11.7060547zm4.2861328-18.3408203 7.03125 7.0302734c4.5195312 4.5263672 10.5449218 7.0166016 16.9677734 7.0166016s12.4482422-2.4902344 16.9648438-7.0126953l33.3779297-33.3789063c9.3564453-9.3554688 9.3564453-24.5800781 0-33.9355469l-7.0302734-7.03125-11.3115235 11.3115235 7.03125 7.0302734c3.1240234 3.125 3.1240234 8.1894531 0 11.3144531l-33.375 33.375c-3.125 3.1230469-8.1894531 3.1230469-11.3144531 0l-7.0302734-7.03125zm367.9990234-51.3125c-4.4182739 0-8 3.5817184-8 8s3.5817261 8 8 8 8-3.5817184 8-8-3.5817261-8-8-8zm0 32c-4.4182739 0-8 3.5817184-8 8s3.5817261 8 8 8 8-3.5817184 8-8-3.5817261-8-8-8zm0 32c-4.4182739 0-8 3.5817261-8 8s3.5817261 8 8 8 8-3.5817261 8-8-3.5817261-8-8-8z" fill="url(#SVGID_1_)"/></svg>